<svg id="svg" version="1.1" xmlns="http://www.w3.org/2000/svg" xmlns:xlink="http://www.w3.org/1999/xlink" width="400" height="321.23769338959215" viewBox="0, 0, 400,321.23769338959215"><g id="svgg"><path id="path0" d="M77.355 55.833 C 70.815 57.137,64.835 62.077,62.329 68.245 C 60.699 72.256,60.759 70.371,60.759 117.428 L 60.759 160.619 63.643 160.621 C 65.229 160.622,67.377 160.703,68.418 160.802 L 70.310 160.980 70.387 116.988 L 70.464 72.996 71.117 71.379 C 72.028 69.123,74.140 66.900,76.458 65.759 L 78.329 64.838 173.412 64.838 L 268.495 64.838 270.245 65.647 C 272.173 66.537,274.390 68.650,275.330 70.494 C 276.440 72.669,276.512 74.181,276.512 95.300 C 276.512 113.761,276.554 115.656,276.957 115.501 C 277.202 115.407,279.549 115.331,282.174 115.331 L 286.946 115.331 286.846 94.163 C 286.736 70.897,286.791 71.665,284.960 67.626 C 282.274 61.703,276.507 57.079,270.265 55.844 C 267.256 55.248,80.338 55.238,77.355 55.833 M280.762 121.542 C 276.294 122.419,272.512 125.850,271.135 130.274 C 270.307 132.935,270.307 250.468,271.135 253.129 C 272.546 257.665,276.287 260.989,280.982 261.879 C 283.553 262.366,360.854 262.256,363.187 261.761 C 368.049 260.730,371.579 257.316,372.857 252.407 C 373.492 249.972,373.492 133.432,372.857 130.997 C 371.574 126.070,367.766 122.448,362.900 121.525 C 361.023 121.169,282.578 121.185,280.762 121.542 M363.994 187.623 L 363.994 243.601 321.660 243.601 L 279.325 243.601 279.325 187.623 L 279.325 131.646 321.660 131.646 L 363.994 131.646 363.994 187.623 M31.505 165.291 C 24.180 166.442,19.252 170.820,17.855 177.416 C 17.252 180.261,17.252 246.743,17.855 249.588 C 18.972 254.862,22.716 259.095,27.960 261.013 L 29.958 261.744 48.101 261.744 C 66.049 261.744,66.266 261.737,68.225 261.121 C 73.318 259.518,77.408 255.144,78.620 250.003 C 78.974 248.500,79.035 243.148,79.035 213.502 C 79.035 183.856,78.974 178.504,78.620 177.001 C 77.432 171.962,73.703 167.883,68.569 166.007 L 66.526 165.260 49.367 165.220 C 39.930 165.198,31.892 165.230,31.505 165.291 M58.509 172.433 L 58.509 173.558 48.242 173.558 L 37.975 173.558 37.975 172.433 L 37.975 171.308 48.242 171.308 L 58.509 171.308 58.509 172.433 M73.136 213.643 L 73.136 248.664 48.242 248.664 L 23.347 248.664 23.347 213.643 L 23.347 178.622 48.242 178.622 L 73.136 178.622 73.136 213.643 M83.826 205.907 L 83.826 218.565 174.543 218.565 L 265.260 218.565 265.260 205.907 L 265.260 193.249 174.543 193.249 L 83.826 193.249 83.826 205.907 M175.982 201.101 C 179.540 202.716,179.934 207.847,176.667 210.010 C 172.686 212.644,167.574 208.992,168.803 204.392 C 169.151 203.090,171.142 200.966,172.204 200.763 C 173.638 200.490,174.881 200.601,175.982 201.101 M154.515 227.589 C 152.252 228.710,152.180 229.093,152.180 240.033 L 152.180 249.508 144.599 249.508 C 136.669 249.508,134.705 249.715,133.478 250.680 C 130.678 252.883,130.808 258.567,133.711 260.882 L 134.792 261.744 172.952 261.828 C 213.394 261.916,212.436 261.946,214.090 260.554 C 216.873 258.212,216.295 251.968,213.138 250.281 C 212.000 249.672,211.636 249.645,203.586 249.559 L 195.218 249.470 195.218 239.685 C 195.218 228.674,195.227 228.723,192.972 227.525 C 191.357 226.667,156.260 226.726,154.515 227.589 M307.370 249.496 C 310.723 251.541,309.249 257.103,305.354 257.103 C 301.136 257.103,299.456 251.901,302.925 249.584 C 304.147 248.767,306.112 248.729,307.370 249.496 M323.671 249.406 C 325.537 250.292,326.312 253.204,325.177 255.066 C 323.014 258.614,317.577 257.187,317.583 253.073 C 317.587 249.808,320.641 247.968,323.671 249.406 M339.749 249.515 C 341.525 250.597,342.132 252.805,341.190 254.753 C 339.374 258.504,333.842 257.505,333.421 253.350 C 333.089 250.072,336.887 247.770,339.749 249.515 M49.868 251.300 C 54.803 253.403,51.837 260.856,46.827 258.943 C 43.492 257.669,43.239 253.120,46.409 251.435 C 47.575 250.816,48.635 250.774,49.868 251.300 " stroke="none" fill="#060606" fill-rule="evenodd"></path><path id="path1" d="M0.000 160.619 L 0.000 321.238 200.000 321.238 L 400.000 321.238 400.000 160.619 L 400.000 0.000 200.000 0.000 L 0.000 0.000 0.000 160.619 M271.095 55.768 C 278.230 57.730,283.554 62.682,285.989 69.620 L 286.779 71.871 286.859 93.730 L 286.939 115.589 281.451 115.671 L 275.962 115.752 275.885 94.227 L 275.809 72.702 274.892 70.840 C 273.825 68.672,272.299 67.185,270.076 66.142 L 268.495 65.401 173.412 65.401 L 78.329 65.401 76.448 66.327 C 74.301 67.384,72.861 68.873,71.765 71.167 L 71.027 72.714 70.952 116.896 L 70.878 161.077 66.029 160.970 C 63.363 160.911,61.019 160.810,60.821 160.746 C 60.529 160.652,60.476 152.273,60.544 116.813 L 60.628 72.996 61.247 70.805 C 63.568 62.602,70.518 56.492,78.762 55.408 C 82.562 54.908,269.239 55.258,271.095 55.768 M365.401 122.009 C 368.522 123.282,371.233 125.993,372.506 129.114 L 373.136 130.661 373.136 191.702 L 373.136 252.743 372.506 254.290 C 371.233 257.411,368.522 260.122,365.401 261.394 L 363.854 262.025 322.518 262.099 C 285.307 262.166,281.026 262.128,279.621 261.723 C 274.969 260.381,271.491 256.588,270.631 251.917 C 270.197 249.563,270.197 133.840,270.631 131.486 C 271.477 126.895,275.129 122.876,279.576 121.644 C 280.604 121.358,289.445 121.294,322.363 121.331 L 363.854 121.378 365.401 122.009 M279.887 187.623 L 279.887 243.038 321.660 243.038 L 363.432 243.038 363.432 187.623 L 363.432 132.208 321.660 132.208 L 279.887 132.208 279.887 187.623 M67.443 165.543 C 72.585 166.755,76.959 170.845,78.561 175.938 L 79.184 177.918 79.184 213.502 L 79.184 249.086 78.561 251.067 C 76.980 256.091,72.728 260.129,67.614 261.461 C 65.126 262.109,31.397 262.090,28.873 261.439 C 23.606 260.081,19.234 255.713,17.859 250.435 C 17.219 247.979,17.230 178.983,17.871 176.524 C 19.239 171.270,23.782 166.800,29.050 165.524 C 31.369 164.962,65.050 164.979,67.443 165.543 M38.256 172.433 L 38.256 173.277 48.383 173.277 L 58.509 173.277 58.509 172.433 L 58.509 171.589 48.383 171.589 L 38.256 171.589 38.256 172.433 M23.910 213.643 L 23.910 248.383 48.242 248.383 L 72.574 248.383 72.574 213.643 L 72.574 178.903 48.242 178.903 L 23.910 178.903 23.910 213.643 M265.260 205.626 L 265.260 218.565 174.402 218.565 L 83.544 218.565 83.544 205.813 C 83.544 198.800,83.629 192.977,83.732 192.874 C 83.835 192.771,124.721 192.686,174.590 192.686 L 265.260 192.686 265.260 205.626 M171.708 201.116 C 169.905 201.846,168.609 204.226,168.850 206.365 C 169.330 210.621,174.836 212.279,177.596 208.999 C 180.978 204.980,176.610 199.133,171.708 201.116 M193.241 227.422 C 195.342 228.508,195.349 228.548,195.442 239.581 L 195.526 249.485 204.043 249.566 C 212.519 249.648,212.565 249.652,213.549 250.326 C 216.804 252.558,217.008 258.567,213.909 260.931 L 212.843 261.744 174.424 261.825 C 153.294 261.869,135.592 261.831,135.085 261.741 C 130.549 260.927,129.920 252.199,134.247 250.104 C 135.419 249.537,135.896 249.508,143.830 249.508 L 152.180 249.508 152.181 239.733 C 152.182 228.819,152.185 228.804,154.217 227.565 C 155.455 226.810,191.800 226.677,193.241 227.422 M303.366 249.492 C 300.176 251.114,300.658 255.900,304.104 256.828 C 306.728 257.535,309.144 255.686,309.141 252.972 C 309.138 250.020,306.022 248.142,303.366 249.492 M319.851 249.422 C 316.192 251.348,317.370 256.815,321.467 256.921 C 326.576 257.054,327.090 249.552,322.007 249.035 C 321.206 248.954,320.500 249.081,319.851 249.422 M335.992 249.341 C 333.546 250.406,332.794 253.448,334.473 255.485 C 336.863 258.384,341.491 256.780,341.491 253.052 C 341.491 250.134,338.620 248.196,335.992 249.341 M46.218 251.746 C 42.563 253.974,44.438 259.414,48.720 259.003 C 52.540 258.636,53.623 253.620,50.308 251.641 C 49.279 251.027,47.314 251.077,46.218 251.746 " stroke="none" fill="#fbfbfb" fill-rule="evenodd"></path><path id="path2" d="M126.934 55.345 C 152.732 55.384,194.947 55.384,220.745 55.345 C 246.544 55.305,225.436 55.273,173.840 55.273 C 122.243 55.273,101.136 55.305,126.934 55.345 M60.615 118.143 C 60.615 141.582,60.649 151.171,60.689 139.451 C 60.730 127.732,60.730 108.555,60.689 96.835 C 60.649 85.116,60.615 94.705,60.615 118.143 M280.393 115.540 C 281.677 115.592,283.702 115.592,284.894 115.539 C 286.085 115.487,285.035 115.444,282.560 115.444 C 280.084 115.445,279.109 115.488,280.393 115.540 M300.796 132.138 C 312.372 132.178,331.233 132.178,342.708 132.138 C 354.184 132.097,344.712 132.064,321.660 132.064 C 298.608 132.064,289.219 132.097,300.796 132.138 M38.040 172.433 C 38.040 172.975,38.098 173.196,38.169 172.925 C 38.239 172.655,38.239 172.212,38.169 171.941 C 38.098 171.670,38.040 171.892,38.040 172.433 M72.710 213.643 C 72.710 232.827,72.744 240.634,72.785 230.991 C 72.826 221.348,72.826 205.652,72.785 196.110 C 72.744 186.569,72.710 194.459,72.710 213.643 M79.180 213.502 C 79.180 232.300,79.213 239.989,79.255 230.591 C 79.296 221.192,79.296 205.812,79.255 196.414 C 79.213 187.015,79.180 194.705,79.180 213.502 M83.673 193.038 C 83.599 193.231,83.573 199.086,83.615 206.048 L 83.691 218.706 83.758 205.837 L 83.826 192.969 174.613 192.897 L 265.401 192.826 174.604 192.756 C 102.175 192.700,83.781 192.757,83.673 193.038 M300.796 243.249 C 312.372 243.290,331.233 243.290,342.708 243.249 C 354.184 243.208,344.712 243.175,321.660 243.175 C 298.608 243.175,289.219 243.208,300.796 243.249 " stroke="none" fill="#9b9b9b" fill-rule="evenodd"></path><path id="path3" d="M126.957 65.190 C 152.613 65.229,194.511 65.229,220.065 65.190 C 245.619 65.150,224.627 65.118,173.418 65.118 C 122.208 65.118,101.301 65.150,126.957 65.190 M279.744 187.623 C 279.744 218.333,279.777 230.897,279.817 215.541 C 279.857 200.186,279.857 175.060,279.817 159.705 C 279.777 144.350,279.744 156.913,279.744 187.623 M270.461 191.702 C 270.461 223.727,270.494 236.787,270.534 220.723 C 270.575 204.659,270.575 178.457,270.534 162.495 C 270.494 146.534,270.461 159.677,270.461 191.702 " stroke="none" fill="#848484" fill-rule="evenodd"></path><path id="path4" d="M66.667 61.463 C 65.983 62.159,65.488 62.729,65.565 62.729 C 65.642 62.729,66.265 62.159,66.948 61.463 C 67.631 60.767,68.127 60.197,68.050 60.197 C 67.972 60.197,67.350 60.767,66.667 61.463 M78.544 64.995 C 75.588 65.580,72.326 68.384,71.117 71.379 L 70.464 72.996 70.387 116.865 C 70.327 151.122,70.234 160.783,69.965 160.954 C 69.741 161.096,69.841 161.174,70.250 161.177 L 70.879 161.181 70.953 116.807 L 71.027 72.433 71.640 71.106 C 73.039 68.077,76.037 65.813,79.364 65.274 C 81.854 64.869,264.981 64.869,267.472 65.274 C 270.912 65.832,273.658 67.847,275.064 70.844 L 275.809 72.433 275.884 94.023 C 275.933 107.910,276.058 115.612,276.236 115.612 C 276.637 115.612,276.608 75.445,276.205 73.267 C 275.598 69.983,273.316 67.065,270.245 65.647 L 268.495 64.838 174.121 64.798 C 122.215 64.775,79.205 64.864,78.544 64.995 M279.325 187.623 L 279.325 243.601 321.660 243.601 L 363.994 243.601 363.994 187.623 L 363.994 131.646 321.660 131.646 L 279.325 131.646 279.325 187.623 M363.432 187.623 L 363.432 243.319 321.519 243.319 L 279.606 243.319 279.606 187.623 L 279.606 131.927 321.519 131.927 L 363.432 131.927 363.432 187.623 M62.529 160.828 C 63.580 160.882,65.226 160.882,66.186 160.827 C 67.147 160.772,66.287 160.728,64.276 160.728 C 62.264 160.729,61.479 160.773,62.529 160.828 M74.543 169.761 C 75.068 170.302,75.560 170.745,75.638 170.745 C 75.715 170.745,75.349 170.302,74.824 169.761 C 74.299 169.219,73.807 168.776,73.729 168.776 C 73.652 168.776,74.018 169.219,74.543 169.761 M43.127 171.519 C 46.038 171.564,50.721 171.564,53.535 171.519 C 56.348 171.473,53.966 171.435,48.242 171.435 C 42.518 171.435,40.216 171.473,43.127 171.519 M43.127 173.488 C 46.038 173.533,50.721 173.533,53.535 173.488 C 56.348 173.442,53.966 173.404,48.242 173.404 C 42.518 173.404,40.216 173.442,43.127 173.488 M23.347 213.643 L 23.347 248.664 48.242 248.664 L 73.136 248.664 73.136 213.643 L 73.136 178.622 48.242 178.622 L 23.347 178.622 23.347 213.643 M72.855 213.643 L 72.855 248.383 48.383 248.383 L 23.910 248.383 23.910 213.643 L 23.910 178.903 48.383 178.903 L 72.855 178.903 72.855 213.643 M129.207 193.179 C 154.244 193.218,195.130 193.218,220.065 193.179 C 245.000 193.139,224.515 193.107,174.543 193.107 C 124.571 193.107,104.170 193.139,129.207 193.179 M195.344 240.366 C 195.344 245.471,195.382 247.599,195.428 245.095 C 195.475 242.591,195.475 238.414,195.429 235.813 C 195.382 233.211,195.344 235.260,195.344 240.366 M215.829 255.696 C 215.829 256.392,215.884 256.677,215.951 256.329 C 216.018 255.981,216.018 255.411,215.951 255.063 C 215.884 254.715,215.829 255.000,215.829 255.696 M74.389 257.454 L 73.277 258.650 74.473 257.538 C 75.584 256.504,75.797 256.259,75.585 256.259 C 75.539 256.259,75.001 256.797,74.389 257.454 " stroke="none" fill="#7c7c7c" fill-rule="evenodd"></path></g></svg>